<?xml version="1.0" encoding="utf-8"?>
<!-- Generator: Adobe Illustrator 16.0.0, SVG Export Plug-In . SVG Version: 6.00 Build 0)  -->
<!DOCTYPE svg PUBLIC "-//W3C//DTD SVG 1.1//EN" "http://www.w3.org/Graphics/SVG/1.1/DTD/svg11.dtd">
<svg version="1.1" id="Layer_1" xmlns="http://www.w3.org/2000/svg" xmlns:xlink="http://www.w3.org/1999/xlink" x="0px" y="0px"
	 width="160px" height="22px" viewBox="0 0 160 22" enable-background="new 0 0 160 22" xml:space="preserve">
<g>
	<g>
		<path fill="#E6E6E6" d="M0.396,21.522V1.853h4.42v19.669H0.396z"/>
		<path fill="#E6E6E6" d="M19.815,16.859c0.336-0.378,0.505-0.847,0.505-1.405c0-0.458-0.173-0.861-0.521-1.21
			c-0.347-0.349-0.763-0.523-1.247-0.523H7.658V9.536H18.52c0.547,0,0.984-0.169,1.311-0.508c0.326-0.339,0.489-0.757,0.489-1.256
			c0-0.458-0.173-0.861-0.521-1.21c-0.347-0.349-0.763-0.523-1.247-0.523H7.658V1.853h10.357c1.684,0,2.968,0.209,3.852,0.627
			s1.583,1.072,2.1,1.958c0.516,0.887,0.774,2.018,0.774,3.393c0,0.638-0.147,1.306-0.442,2.003
			c-0.295,0.698-0.905,1.295-1.831,1.793c0.905,0.499,1.51,1.097,1.815,1.794c0.305,0.697,0.458,1.395,0.458,2.092
			c0,0.758-0.122,1.495-0.363,2.213c-0.242,0.717-0.626,1.359-1.152,1.928c-0.526,0.568-1.221,1.021-2.084,1.36
			c-0.864,0.339-1.906,0.508-3.126,0.508H7.658v-4.185H18.52c0.505,0,0.937-0.169,1.295-0.509V16.859z"/>
		<path fill="#E6E6E6" d="M41.949,18.832h-9.978l-0.947,2.69h-4.705l6.378-16.949c0.357-0.937,0.916-1.624,1.673-2.063
			c0.758-0.438,1.631-0.657,2.621-0.657c1.011,0,1.889,0.219,2.637,0.657c0.747,0.439,1.299,1.126,1.658,2.063l6.378,16.949h-4.673
			L41.949,18.832z M36.928,6.068c-0.105,0-0.2,0.1-0.284,0.299l-3.126,8.281h6.883l-3-8.131c-0.189-0.299-0.305-0.448-0.347-0.448
			H36.928z"/>
		<path fill="#E6E6E6" d="M50.253,17.338h11.304c0.484,0,0.879-0.175,1.184-0.523s0.463-0.772,0.474-1.271s-0.142-0.927-0.458-1.285
			c-0.316-0.359-0.716-0.538-1.2-0.538h-5.589c-1.242,0-2.289-0.18-3.142-0.538s-1.547-0.817-2.084-1.375
			c-0.537-0.558-0.921-1.185-1.152-1.883c-0.232-0.697-0.348-1.424-0.348-2.182c0-0.757,0.126-1.499,0.379-2.227
			c0.253-0.727,0.647-1.36,1.184-1.898c0.537-0.538,1.231-0.967,2.084-1.286c0.853-0.318,1.879-0.478,3.079-0.478h10.357v4.185
			H55.431c-0.484,0-0.9,0.174-1.247,0.523c-0.348,0.349-0.521,0.762-0.521,1.241c0,0.478,0.173,0.887,0.521,1.226
			c0.347,0.339,0.773,0.508,1.279,0.508h5.494c2.063,0,3.694,0.503,4.894,1.509c1.2,1.007,1.8,2.502,1.8,4.484
			c0,1.983-0.595,3.478-1.784,4.483c-1.189,1.007-2.847,1.51-4.973,1.51H50.253V17.338z"/>
		<path fill="#E6E6E6" d="M79.429,21.522c-1.537,0-2.879-0.199-4.026-0.598c-1.148-0.398-2.105-0.972-2.874-1.719
			c-0.769-0.747-1.347-1.648-1.737-2.705s-0.584-2.242-0.584-3.558V1.853h4.42v11.12c0,1.376,0.411,2.447,1.231,3.214
			c0.821,0.768,1.979,1.151,3.474,1.151h6.504v4.185H79.429z"/>
		<path fill="#E6E6E6" d="M95.974,1.853h1.516c6.273,0,9.441,3.258,9.505,9.775v0.09c0,6.537-3.158,9.805-9.473,9.805h-1.579
			c-6.315,0-9.473-3.268-9.473-9.805v-0.09c0.021-3.188,0.821-5.6,2.399-7.234C90.49,2.7,92.858,1.853,95.974,1.853z M95.09,6.038
			c-1.41,0-2.463,0.458-3.157,1.375c-0.695,0.917-1.042,2.361-1.042,4.334c0,3.727,1.389,5.59,4.168,5.59h3.347
			c2.778,0,4.168-1.863,4.168-5.59c0-1.973-0.348-3.417-1.042-4.334c-0.694-0.917-1.747-1.375-3.157-1.375H95.09z"/>
		<path fill="#E6E6E6" d="M135.601,21.522V1.853h4.421v19.669H135.601z"/>
		<path fill="#E6E6E6" d="M159.755,21.522h-7.704c-6.315,0-9.473-3.268-9.473-9.805v-0.09c0.063-6.517,3.231-9.775,9.504-9.775
			h7.705v4.185h-8.589c-1.41,0-2.463,0.458-3.157,1.375c-0.695,0.917-1.042,2.361-1.042,4.334v0.239
			c0,3.568,1.389,5.351,4.168,5.351h8.588V21.522z"/>
	</g>
	<g>
		<path fill="#E6E6E6" d="M121.084,21.4c-3.365,0-6.207-0.979-8.524-2.936c-2.317-1.958-3.477-4.357-3.477-7.2
			c0-2.842,1.159-5.242,3.477-7.199c2.317-1.957,5.159-2.936,8.524-2.936c3.534,0,6.519,1.138,8.953,3.413
			c0.508,0.484,0.762,0.995,0.762,1.532c0,0.663-0.281,1.228-0.842,1.693c-0.561,0.466-1.232,0.699-2.016,0.699
			c-0.614,0-1.238-0.225-1.873-0.676c-0.551-0.396-1.164-0.83-1.842-1.298c-0.868-0.451-1.915-0.676-3.143-0.676
			c-1.842,0-3.376,0.519-4.604,1.557c-1.228,1.038-1.842,2.335-1.842,3.893c0,1.54,0.619,2.833,1.857,3.879s2.768,1.569,4.588,1.569
			c1.248,0,2.401-0.28,3.46-0.843s1.853-1.316,2.382-2.263h-3.397c-0.805,0-1.466-0.224-1.984-0.67s-0.777-1.008-0.777-1.687
			s0.259-1.236,0.777-1.674c0.519-0.437,1.18-0.656,1.984-0.656h6.794c0.762,0,1.413,0.232,1.952,0.696
			c0.54,0.464,0.81,1.018,0.81,1.66c0,2.839-1.158,5.235-3.476,7.19C127.29,20.423,124.449,21.4,121.084,21.4z"/>
	</g>
</g>
</svg>
